<svg xmlns="http://www.w3.org/2000/svg" xmlns:xlink="http://www.w3.org/1999/xlink" viewBox="0 0 730 396"><g transform="translate(-6.147 -1.342)" id="ss12637604363_1"><g transform="translate(0 0)" id="ss12637604363_2"><path d="M 258.624 148.498 C 258.624 147.635 259.325 146.935 260.189 146.935 C 261.053 146.935 261.753 147.635 261.753 148.498 C 261.753 149.361 261.053 150.061 260.189 150.061 C 259.325 150.061 258.624 149.361 258.624 148.498 Z" fill="rgba(255,255,255,0.2)"></path><path d="M 140.311 105.507 C 140.311 104.644 141.012 103.944 141.875 103.944 C 142.739 103.944 143.44 104.644 143.44 105.507 C 143.44 106.37 142.739 107.07 141.875 107.07 C 141.012 107.07 140.311 106.37 140.311 105.507 Z" fill="rgba(255,255,255,0.2)"></path><path d="M 409.202 71.727 C 409.202 70.864 409.902 70.164 410.766 70.164 C 411.63 70.164 412.33 70.864 412.33 71.727 C 412.33 72.59 411.63 73.29 410.766 73.29 C 409.902 73.29 409.202 72.59 409.202 71.727 Z" fill="rgba(255,255,255,0.2)"></path><path d="M 218.674 36.413 C 218.674 35.55 219.374 34.85 220.238 34.85 C 221.102 34.85 221.802 35.55 221.802 36.413 C 221.802 37.277 221.102 37.976 220.238 37.976 C 219.374 37.976 218.674 37.277 218.674 36.413 Z" fill="rgba(255,255,255,0.2)"></path><path d="M 204.845 260.583 C 204.845 259.719 205.546 259.019 206.41 259.019 C 207.274 259.019 207.974 259.719 207.974 260.583 C 207.974 261.446 207.274 262.146 206.41 262.146 C 205.546 262.146 204.845 261.446 204.845 260.583 Z" fill="rgba(255,255,255,0.2)"></path><path d="M 114.191 136.215 C 114.191 135.351 114.891 134.651 115.755 134.651 C 116.619 134.651 117.319 135.351 117.319 136.215 C 117.319 137.078 116.619 137.778 115.755 137.778 C 114.891 137.778 114.191 137.078 114.191 136.215 Z" fill="rgba(255,255,255,0.2)"></path><path d="M 344.668 93.224 C 344.668 92.36 345.369 91.66 346.233 91.66 C 347.097 91.66 347.797 92.36 347.797 93.224 C 347.797 94.087 347.097 94.787 346.233 94.787 C 345.369 94.787 344.668 94.087 344.668 93.224 Z" fill="rgba(255,255,255,0.2)"></path><path d="M 393.837 274.402 C 393.837 273.539 394.538 272.839 395.401 272.839 C 396.265 272.839 396.966 273.539 396.966 274.402 C 396.966 275.265 396.265 275.965 395.401 275.965 C 394.538 275.965 393.837 275.265 393.837 274.402 Z" fill="rgba(255,255,255,0.2)"></path><path d="M 260.159 232.946 C 260.159 232.083 260.86 231.383 261.724 231.383 C 262.588 231.383 263.288 232.083 263.288 232.946 C 263.288 233.809 262.588 234.509 261.724 234.509 C 260.86 234.509 260.159 233.809 260.159 232.946 Z" fill="rgba(255,255,255,0.2)"></path><path d="M 310.864 21.059 C 310.864 20.196 311.565 19.496 312.429 19.496 C 313.292 19.496 313.993 20.196 313.993 21.059 C 313.993 21.922 313.292 22.622 312.429 22.622 C 311.565 22.622 310.864 21.922 310.864 21.059 Z" fill="rgba(255,255,255,0.2)"></path><path d="M 595.121 34.878 C 595.121 34.015 595.821 33.315 596.685 33.315 C 597.549 33.315 598.25 34.015 598.25 34.878 C 598.25 35.742 597.549 36.441 596.685 36.441 C 595.821 36.441 595.121 35.742 595.121 34.878 Z" fill="rgba(255,255,255,0.2)"></path><path d="M 484.492 150.033 C 484.492 149.17 485.192 148.47 486.056 148.47 C 486.92 148.47 487.62 149.17 487.62 150.033 C 487.62 150.896 486.92 151.596 486.056 151.596 C 485.192 151.596 484.492 150.896 484.492 150.033 Z" fill="rgba(255,255,255,0.2)"></path><path d="M 290.89 206.843 C 290.89 205.98 291.591 205.28 292.455 205.28 C 293.319 205.28 294.019 205.98 294.019 206.843 C 294.019 207.707 293.319 208.406 292.455 208.406 C 291.591 208.406 290.89 207.707 290.89 206.843 Z" fill="rgba(255,255,255,0.2)"></path><path d="M 11.244 45.625 C 11.244 44.762 11.944 44.062 12.808 44.062 C 13.672 44.062 14.373 44.762 14.373 45.625 C 14.373 46.489 13.672 47.189 12.808 47.189 C 11.944 47.189 11.244 46.489 11.244 45.625 Z" fill="rgba(255,255,255,0.2)"></path><path d="M 123.41 19.524 C 123.41 18.661 124.11 17.961 124.974 17.961 C 125.838 17.961 126.538 18.661 126.538 19.524 C 126.538 20.387 125.838 21.087 124.974 21.087 C 124.11 21.087 123.41 20.387 123.41 19.524 Z" fill="rgba(255,255,255,0.2)"></path><path d="M 498.319 44.09 C 498.319 43.227 499.019 42.527 499.883 42.527 C 500.747 42.527 501.447 43.227 501.447 44.09 C 501.447 44.954 500.747 45.654 499.883 45.654 C 499.019 45.654 498.319 44.954 498.319 44.09 Z" fill="rgba(255,255,255,0.2)"></path><path d="M 435.322 17.988 C 435.322 17.124 436.022 16.425 436.886 16.425 C 437.75 16.425 438.45 17.124 438.45 17.988 C 438.45 18.851 437.75 19.551 436.886 19.551 C 436.022 19.551 435.322 18.851 435.322 17.988 Z" fill="rgba(255,255,255,0.2)"></path><path d="M 321.62 176.136 C 321.62 175.272 322.321 174.572 323.185 174.572 C 324.049 174.572 324.749 175.272 324.749 176.136 C 324.749 176.999 324.049 177.699 323.185 177.699 C 322.321 177.699 321.62 176.999 321.62 176.136 Z" fill="rgba(255,255,255,0.2)"></path><path d="M 220.21 82.475 C 220.21 81.612 220.91 80.912 221.774 80.912 C 222.638 80.912 223.338 81.612 223.338 82.475 C 223.338 83.339 222.638 84.038 221.774 84.038 C 220.91 84.038 220.21 83.339 220.21 82.475 Z" fill="rgba(255,255,255,0.2)"></path><path d="M 261.696 16.453 C 261.696 15.589 262.396 14.89 263.26 14.89 C 264.124 14.89 264.824 15.589 264.824 16.453 C 264.824 17.316 264.124 18.016 263.26 18.016 C 262.396 18.016 261.696 17.316 261.696 16.453 Z" fill="rgba(255,255,255,0.2)"></path><path d="M 423.03 128.537 C 423.03 127.674 423.73 126.974 424.594 126.974 C 425.458 126.974 426.158 127.674 426.158 128.537 C 426.158 129.401 425.458 130.101 424.594 130.101 C 423.73 130.101 423.03 129.401 423.03 128.537 Z" fill="rgba(255,255,255,0.2)"></path><path d="M 369.253 272.866 C 369.253 272.003 369.953 271.303 370.817 271.303 C 371.681 271.303 372.381 272.003 372.381 272.866 C 372.381 273.729 371.681 274.429 370.817 274.429 C 369.953 274.429 369.253 273.729 369.253 272.866 Z" fill="rgba(255,255,255,0.2)"></path><g transform="translate(0 0)" id="ss12637604363_25"><g transform="translate(152.065 141.017)" id="ss12637604363_26"><path d="M 0 1.042 C 0 0.467 0.467 0 1.043 0 C 1.619 0 2.086 0.467 2.086 1.042 C 2.086 1.618 1.619 2.084 1.043 2.084 C 0.467 2.084 0 1.618 0 1.042 Z" fill="rgb(255,255,255)"></path></g><g transform="translate(32.537 97.583)" id="ss12637604363_28"><path d="M 0 1.042 C 0 0.467 0.467 0 1.043 0 C 1.619 0 2.086 0.467 2.086 1.042 C 2.086 1.618 1.619 2.084 1.043 2.084 C 0.467 2.084 0 1.618 0 1.042 Z" fill="rgb(255,255,255)"></path></g><g transform="translate(304.191 63.457)" id="ss12637604363_30"><path d="M 0 1.042 C 0 0.467 0.467 0 1.043 0 C 1.619 0 2.086 0.467 2.086 1.042 C 2.086 1.618 1.619 2.084 1.043 2.084 C 0.467 2.084 0 1.618 0 1.042 Z" fill="rgb(255,255,255)"></path></g><g transform="translate(111.705 27.779)" id="ss12637604363_32"><path d="M 0 1.042 C 0 0.467 0.467 0 1.043 0 C 1.619 0 2.086 0.467 2.086 1.042 C 2.086 1.618 1.619 2.084 1.043 2.084 C 0.467 2.084 0 1.618 0 1.042 Z" fill="rgb(255,255,255)"></path></g><g transform="translate(97.733 254.254)" id="ss12637604363_34"><path d="M 0 1.042 C 0 0.467 0.467 0 1.043 0 C 1.619 0 2.086 0.467 2.086 1.042 C 2.086 1.618 1.619 2.084 1.043 2.084 C 0.467 2.084 0 1.618 0 1.042 Z" fill="rgb(255,255,255)"></path></g><g transform="translate(6.147 128.606)" id="ss12637604363_36"><path d="M 0 1.042 C 0 0.467 0.467 0 1.043 0 C 1.619 0 2.086 0.467 2.086 1.042 C 2.086 1.618 1.619 2.084 1.043 2.084 C 0.467 2.084 0 1.618 0 1.042 Z" fill="rgb(255,255,255)"></path></g><g transform="translate(238.995 85.173)" id="ss12637604363_38"><path d="M 0 1.042 C 0 0.467 0.467 0 1.043 0 C 1.619 0 2.086 0.467 2.086 1.042 C 2.086 1.618 1.619 2.084 1.043 2.084 C 0.467 2.084 0 1.618 0 1.042 Z" fill="rgb(255,255,255)"></path></g><g transform="translate(288.668 268.214)" id="ss12637604363_40"><path d="M 0 1.042 C 0 0.467 0.467 0 1.043 0 C 1.619 0 2.086 0.467 2.086 1.042 C 2.086 1.618 1.619 2.084 1.043 2.084 C 0.467 2.084 0 1.618 0 1.042 Z" fill="rgb(255,255,255)"></path></g><g transform="translate(153.617 226.332)" id="ss12637604363_42"><path d="M 0 1.042 C 0 0.467 0.467 0 1.043 0 C 1.619 0 2.086 0.467 2.086 1.042 C 2.086 1.618 1.619 2.084 1.043 2.084 C 0.467 2.084 0 1.618 0 1.042 Z" fill="rgb(255,255,255)"></path></g><g transform="translate(204.843 12.267)" id="ss12637604363_44"><path d="M 0 1.042 C 0 0.467 0.467 0 1.043 0 C 1.619 0 2.086 0.467 2.086 1.042 C 2.086 1.618 1.619 2.084 1.043 2.084 C 0.467 2.084 0 1.618 0 1.042 Z" fill="rgb(255,255,255)"></path></g><g transform="translate(600.746 18.614)" id="ss12637604363_46"><path d="M 0 1.042 C 0 0.467 0.467 0 1.043 0 C 1.619 0 2.086 0.467 2.086 1.042 C 2.086 1.618 1.619 2.084 1.043 2.084 C 0.467 2.084 0 1.618 0 1.042 Z" fill="rgb(255,255,255)"></path></g><g transform="translate(488.979 134.954)" id="ss12637604363_48"><path d="M 0 1.042 C 0 0.467 0.467 0 1.043 0 C 1.619 0 2.086 0.467 2.086 1.042 C 2.086 1.618 1.619 2.084 1.043 2.084 C 0.467 2.084 0 1.618 0 1.042 Z" fill="rgb(255,255,255)"></path></g><g transform="translate(293.389 192.349)" id="ss12637604363_50"><path d="M 0 1.042 C 0 0.467 0.467 0 1.043 0 C 1.619 0 2.086 0.467 2.086 1.042 C 2.086 1.618 1.619 2.084 1.043 2.084 C 0.467 2.084 0 1.618 0 1.042 Z" fill="rgb(255,255,255)"></path></g><g transform="translate(10.867 29.473)" id="ss12637604363_52"><path d="M 0 1.042 C 0 0.467 0.467 0 1.043 0 C 1.619 0 2.086 0.467 2.086 1.042 C 2.086 1.618 1.619 2.084 1.043 2.084 C 0.467 2.084 0 1.618 0 1.042 Z" fill="rgb(255,255,255)"></path></g><g transform="translate(124.186 3.102)" id="ss12637604363_54"><path d="M 0 1.042 C 0 0.467 0.467 0 1.043 0 C 1.619 0 2.086 0.467 2.086 1.042 C 2.086 1.618 1.619 2.084 1.043 2.084 C 0.467 2.084 0 1.618 0 1.042 Z" fill="rgb(255,255,255)"></path></g><g transform="translate(0 141.159)" id="ss12637604363_56"><path d="M 0 1.042 C 0 0.467 0.467 0 1.043 0 C 1.619 0 2.086 0.467 2.086 1.042 C 2.086 1.618 1.619 2.084 1.043 2.084 C 0.467 2.084 0 1.618 0 1.042 Z" fill="rgb(255,255,255)"></path></g><g transform="translate(502.95 27.922)" id="ss12637604363_58"><path d="M 0 1.042 C 0 0.467 0.467 0 1.043 0 C 1.619 0 2.086 0.467 2.086 1.042 C 2.086 1.618 1.619 2.084 1.043 2.084 C 0.467 2.084 0 1.618 0 1.042 Z" fill="rgb(255,255,255)"></path></g><g transform="translate(439.305 1.552)" id="ss12637604363_60"><path d="M 0 1.042 C 0 0.467 0.467 0 1.043 0 C 1.619 0 2.086 0.467 2.086 1.042 C 2.086 1.618 1.619 2.084 1.043 2.084 C 0.467 2.084 0 1.618 0 1.042 Z" fill="rgb(255,255,255)"></path></g><g transform="translate(324.434 161.324)" id="ss12637604363_62"><path d="M 0 1.042 C 0 0.467 0.467 0 1.043 0 C 1.619 0 2.086 0.467 2.086 1.042 C 2.086 1.618 1.619 2.084 1.043 2.084 C 0.467 2.084 0 1.618 0 1.042 Z" fill="rgb(255,255,255)"></path></g><g transform="translate(221.98 66.701)" id="ss12637604363_64"><path d="M 0 1.042 C 0 0.467 0.467 0 1.043 0 C 1.619 0 2.086 0.467 2.086 1.042 C 2.086 1.618 1.619 2.084 1.043 2.084 C 0.467 2.084 0 1.618 0 1.042 Z" fill="rgb(255,255,255)"></path></g><g transform="translate(263.893 0)" id="ss12637604363_66"><path d="M 0 1.042 C 0 0.467 0.467 0 1.043 0 C 1.619 0 2.086 0.467 2.086 1.042 C 2.086 1.618 1.619 2.084 1.043 2.084 C 0.467 2.084 0 1.618 0 1.042 Z" fill="rgb(255,255,255)"></path></g><g transform="translate(426.886 113.237)" id="ss12637604363_68"><path d="M 0 1.042 C 0 0.467 0.467 0 1.043 0 C 1.619 0 2.086 0.467 2.086 1.042 C 2.086 1.618 1.619 2.084 1.043 2.084 C 0.467 2.084 0 1.618 0 1.042 Z" fill="rgb(255,255,255)"></path></g><g transform="translate(372.557 259.05)" id="ss12637604363_70"><path d="M 0 1.042 C 0 0.467 0.467 0 1.043 0 C 1.619 0 2.086 0.467 2.086 1.042 C 2.086 1.618 1.619 2.084 1.043 2.084 C 0.467 2.084 0 1.618 0 1.042 Z" fill="rgb(255,255,255)"></path></g></g><g transform="translate(264.282 267.819)" id="ss12637604363_72"><path d="M 0 1.042 C 0 0.467 0.467 0 1.043 0 C 1.619 0 2.086 0.467 2.086 1.042 C 2.086 1.618 1.619 2.084 1.043 2.084 C 0.467 2.084 0 1.618 0 1.042 Z" fill="rgba(255,255,255,0.4)"></path></g><g transform="translate(145.97 224.828)" id="ss12637604363_74"><path d="M 0 1.042 C 0 0.467 0.467 0 1.043 0 C 1.619 0 2.086 0.467 2.086 1.042 C 2.086 1.618 1.619 2.084 1.043 2.084 C 0.467 2.084 0 1.618 0 1.042 Z" fill="rgba(255,255,255,0.4)"></path></g><g transform="translate(414.86 191.048)" id="ss12637604363_76"><path d="M 0 1.042 C 0 0.467 0.467 0 1.043 0 C 1.619 0 2.086 0.467 2.086 1.042 C 2.086 1.618 1.619 2.084 1.043 2.084 C 0.467 2.084 0 1.618 0 1.042 Z" fill="rgba(255,255,255,0.4)"></path></g><g transform="translate(224.332 155.734)" id="ss12637604363_78"><path d="M 0 1.042 C 0 0.467 0.467 0 1.043 0 C 1.619 0 2.086 0.467 2.086 1.042 C 2.086 1.618 1.619 2.084 1.043 2.084 C 0.467 2.084 0 1.618 0 1.042 Z" fill="rgba(255,255,255,0.4)"></path></g><g transform="translate(210.504 379.904)" id="ss12637604363_80"><path d="M 0 1.042 C 0 0.467 0.467 0 1.043 0 C 1.619 0 2.086 0.467 2.086 1.042 C 2.086 1.618 1.619 2.084 1.043 2.084 C 0.467 2.084 0 1.618 0 1.042 Z" fill="rgba(255,255,255,0.4)"></path></g><g transform="translate(119.848 255.536)" id="ss12637604363_82"><path d="M 0 1.042 C 0 0.467 0.467 0 1.043 0 C 1.619 0 2.086 0.467 2.086 1.042 C 2.086 1.618 1.619 2.084 1.043 2.084 C 0.467 2.084 0 1.618 0 1.042 Z" fill="rgba(255,255,255,0.4)"></path></g><g transform="translate(350.327 212.545)" id="ss12637604363_84"><path d="M 0 1.042 C 0 0.467 0.467 0 1.043 0 C 1.619 0 2.086 0.467 2.086 1.042 C 2.086 1.618 1.619 2.084 1.043 2.084 C 0.467 2.084 0 1.618 0 1.042 Z" fill="rgba(255,255,255,0.4)"></path></g><g transform="translate(399.496 393.723)" id="ss12637604363_86"><path d="M 0 1.042 C 0 0.467 0.467 0 1.043 0 C 1.619 0 2.086 0.467 2.086 1.042 C 2.086 1.618 1.619 2.084 1.043 2.084 C 0.467 2.084 0 1.618 0 1.042 Z" fill="rgba(255,255,255,0.4)"></path></g><g transform="translate(265.818 352.267)" id="ss12637604363_88"><path d="M 0 1.042 C 0 0.467 0.467 0 1.043 0 C 1.619 0 2.086 0.467 2.086 1.042 C 2.086 1.618 1.619 2.084 1.043 2.084 C 0.467 2.084 0 1.618 0 1.042 Z" fill="rgba(255,255,255,0.4)"></path></g><g transform="translate(316.523 140.38)" id="ss12637604363_90"><path d="M 0 1.042 C 0 0.467 0.467 0 1.043 0 C 1.619 0 2.086 0.467 2.086 1.042 C 2.086 1.618 1.619 2.084 1.043 2.084 C 0.467 2.084 0 1.618 0 1.042 Z" fill="rgba(255,255,255,0.4)"></path></g><g transform="translate(600.779 154.198)" id="ss12637604363_92"><path d="M 0 1.042 C 0 0.467 0.467 0 1.043 0 C 1.619 0 2.086 0.467 2.086 1.042 C 2.086 1.618 1.619 2.084 1.043 2.084 C 0.467 2.084 0 1.618 0 1.042 Z" fill="rgba(255,255,255,0.4)"></path></g><g transform="translate(490.149 269.354)" id="ss12637604363_94"><path d="M 0 1.042 C 0 0.467 0.467 0 1.043 0 C 1.619 0 2.086 0.467 2.086 1.042 C 2.086 1.618 1.619 2.084 1.043 2.084 C 0.467 2.084 0 1.618 0 1.042 Z" fill="rgba(255,255,255,0.4)"></path></g><g transform="translate(296.549 326.164)" id="ss12637604363_96"><path d="M 0 1.042 C 0 0.467 0.467 0 1.043 0 C 1.619 0 2.086 0.467 2.086 1.042 C 2.086 1.618 1.619 2.084 1.043 2.084 C 0.467 2.084 0 1.618 0 1.042 Z" fill="rgba(255,255,255,0.4)"></path></g><g transform="translate(16.902 164.947)" id="ss12637604363_98"><path d="M 0 1.042 C 0 0.467 0.467 0 1.043 0 C 1.619 0 2.086 0.467 2.086 1.042 C 2.086 1.618 1.619 2.084 1.043 2.084 C 0.467 2.084 0 1.618 0 1.042 Z" fill="rgba(255,255,255,0.4)"></path></g><g transform="translate(129.068 138.845)" id="ss12637604363_100"><path d="M 0 1.042 C 0 0.467 0.467 0 1.043 0 C 1.619 0 2.086 0.467 2.086 1.042 C 2.086 1.618 1.619 2.084 1.043 2.084 C 0.467 2.084 0 1.618 0 1.042 Z" fill="rgba(255,255,255,0.4)"></path></g><g transform="translate(6.147 275.496)" id="ss12637604363_102"><path d="M 0 1.042 C 0 0.467 0.467 0 1.043 0 C 1.619 0 2.086 0.467 2.086 1.042 C 2.086 1.618 1.619 2.084 1.043 2.084 C 0.467 2.084 0 1.618 0 1.042 Z" fill="rgba(255,255,255,0.4)"></path></g><g transform="translate(503.977 163.412)" id="ss12637604363_104"><path d="M 0 1.042 C 0 0.467 0.467 0 1.043 0 C 1.619 0 2.086 0.467 2.086 1.042 C 2.086 1.618 1.619 2.084 1.043 2.084 C 0.467 2.084 0 1.618 0 1.042 Z" fill="rgba(255,255,255,0.4)"></path></g><g transform="translate(440.981 137.309)" id="ss12637604363_106"><path d="M 0 1.042 C 0 0.467 0.467 0 1.043 0 C 1.619 0 2.086 0.467 2.086 1.042 C 2.086 1.618 1.619 2.084 1.043 2.084 C 0.467 2.084 0 1.618 0 1.042 Z" fill="rgba(255,255,255,0.4)"></path></g><g transform="translate(327.279 295.457)" id="ss12637604363_108"><path d="M 0 1.042 C 0 0.467 0.467 0 1.043 0 C 1.619 0 2.086 0.467 2.086 1.042 C 2.086 1.618 1.619 2.084 1.043 2.084 C 0.467 2.084 0 1.618 0 1.042 Z" fill="rgba(255,255,255,0.4)"></path></g><g transform="translate(225.867 201.796)" id="ss12637604363_110"><path d="M 0 1.042 C 0 0.467 0.467 0 1.043 0 C 1.619 0 2.086 0.467 2.086 1.042 C 2.086 1.618 1.619 2.084 1.043 2.084 C 0.467 2.084 0 1.618 0 1.042 Z" fill="rgba(255,255,255,0.4)"></path></g><g transform="translate(267.354 135.774)" id="ss12637604363_112"><path d="M 0 1.042 C 0 0.467 0.467 0 1.043 0 C 1.619 0 2.086 0.467 2.086 1.042 C 2.086 1.618 1.619 2.084 1.043 2.084 C 0.467 2.084 0 1.618 0 1.042 Z" fill="rgba(255,255,255,0.4)"></path></g><g transform="translate(428.688 247.858)" id="ss12637604363_114"><path d="M 0 1.042 C 0 0.467 0.467 0 1.043 0 C 1.619 0 2.086 0.467 2.086 1.042 C 2.086 1.618 1.619 2.084 1.043 2.084 C 0.467 2.084 0 1.618 0 1.042 Z" fill="rgba(255,255,255,0.4)"></path></g><g transform="translate(374.91 392.187)" id="ss12637604363_116"><path d="M 0 1.042 C 0 0.467 0.467 0 1.043 0 C 1.619 0 2.086 0.467 2.086 1.042 C 2.086 1.618 1.619 2.084 1.043 2.084 C 0.467 2.084 0 1.618 0 1.042 Z" fill="rgba(255,255,255,0.4)"></path></g><path d="M 673.082 152.145 C 673.082 151.57 673.549 151.103 674.125 151.103 C 674.701 151.103 675.168 151.57 675.168 152.145 C 675.168 152.721 674.701 153.187 674.125 153.187 C 673.549 153.187 673.082 152.721 673.082 152.145 Z" fill="rgba(255,255,255,0.7)"></path><path d="M 554.77 109.154 C 554.77 108.579 555.237 108.112 555.813 108.112 C 556.389 108.112 556.856 108.579 556.856 109.154 C 556.856 109.73 556.389 110.196 555.813 110.196 C 555.237 110.196 554.77 109.73 554.77 109.154 Z" fill="rgba(255,255,255,0.7)"></path><path d="M 633.132 40.061 C 633.132 39.485 633.599 39.019 634.175 39.019 C 634.751 39.019 635.218 39.485 635.218 40.061 C 635.218 40.636 634.751 41.103 634.175 41.103 C 633.599 41.103 633.132 40.636 633.132 40.061 Z" fill="rgba(255,255,255,0.7)"></path><path d="M 619.304 264.23 C 619.304 263.654 619.771 263.188 620.347 263.188 C 620.923 263.188 621.39 263.654 621.39 264.23 C 621.39 264.806 620.923 265.272 620.347 265.272 C 619.771 265.272 619.304 264.806 619.304 264.23 Z" fill="rgba(255,255,255,0.7)"></path><path d="M 528.648 139.862 C 528.648 139.286 529.115 138.82 529.691 138.82 C 530.267 138.82 530.734 139.286 530.734 139.862 C 530.734 140.438 530.267 140.904 529.691 140.904 C 529.115 140.904 528.648 140.438 528.648 139.862 Z" fill="rgba(255,255,255,0.7)"></path><path d="M 674.618 236.593 C 674.618 236.018 675.085 235.551 675.661 235.551 C 676.237 235.551 676.704 236.018 676.704 236.593 C 676.704 237.169 676.237 237.635 675.661 237.635 C 675.085 237.635 674.618 237.169 674.618 236.593 Z" fill="rgba(255,255,255,0.7)"></path><path d="M 725.323 24.706 C 725.323 24.131 725.79 23.664 726.366 23.664 C 726.942 23.664 727.408 24.131 727.408 24.706 C 727.408 25.282 726.942 25.748 726.366 25.748 C 725.79 25.748 725.323 25.282 725.323 24.706 Z" fill="rgba(255,255,255,0.7)"></path><path d="M 705.349 210.491 C 705.349 209.915 705.816 209.449 706.392 209.449 C 706.968 209.449 707.435 209.915 707.435 210.491 C 707.435 211.066 706.968 211.533 706.392 211.533 C 705.816 211.533 705.349 211.066 705.349 210.491 Z" fill="rgba(255,255,255,0.7)"></path><path d="M 425.702 49.273 C 425.702 48.697 426.168 48.231 426.744 48.231 C 427.32 48.231 427.787 48.697 427.787 49.273 C 427.787 49.848 427.32 50.315 426.744 50.315 C 426.168 50.315 425.702 49.848 425.702 49.273 Z" fill="rgba(255,255,255,0.7)"></path><path d="M 537.868 23.171 C 537.868 22.596 538.335 22.129 538.911 22.129 C 539.487 22.129 539.954 22.596 539.954 23.171 C 539.954 23.747 539.487 24.213 538.911 24.213 C 538.335 24.213 537.868 23.747 537.868 23.171 Z" fill="rgba(255,255,255,0.7)"></path><path d="M 414.947 159.822 C 414.947 159.247 415.414 158.78 415.99 158.78 C 416.565 158.78 417.032 159.247 417.032 159.822 C 417.032 160.398 416.565 160.865 415.99 160.865 C 415.414 160.865 414.947 160.398 414.947 159.822 Z" fill="rgba(255,255,255,0.7)"></path><path d="M 736.079 179.783 C 736.079 179.207 736.546 178.741 737.122 178.741 C 737.698 178.741 738.164 179.207 738.164 179.783 C 738.164 180.359 737.698 180.825 737.122 180.825 C 736.546 180.825 736.079 180.359 736.079 179.783 Z" fill="rgba(255,255,255,0.7)"></path><path d="M 634.667 86.123 C 634.667 85.547 635.134 85.081 635.71 85.081 C 636.286 85.081 636.753 85.547 636.753 86.123 C 636.753 86.698 636.286 87.165 635.71 87.165 C 635.134 87.165 634.667 86.698 634.667 86.123 Z" fill="rgba(255,255,255,0.7)"></path><path d="M 676.154 20.1 C 676.154 19.525 676.621 19.058 677.197 19.058 C 677.773 19.058 678.24 19.525 678.24 20.1 C 678.24 20.676 677.773 21.142 677.197 21.142 C 676.621 21.142 676.154 20.676 676.154 20.1 Z" fill="rgba(255,255,255,0.7)"></path></g></g></svg>