<svg xmlns="http://www.w3.org/2000/svg" width="48" height="48" fill="none"><filter id="a" width="48" height="54" x="0" y="-3" color-interpolation-filters="sRGB" filterUnits="userSpaceOnUse"><feFlood flood-opacity="0" result="BackgroundImageFix"/><feBlend in="SourceGraphic" in2="BackgroundImageFix" result="shape"/><feColorMatrix in="SourceAlpha" result="hardAlpha" values="0 0 0 0 0 0 0 0 0 0 0 0 0 0 0 0 0 0 127 0"/><feOffset dy="-3"/><feGaussianBlur stdDeviation="1.5"/><feComposite in2="hardAlpha" k2="-1" k3="1" operator="arithmetic"/><feColorMatrix values="0 0 0 0 0 0 0 0 0 0 0 0 0 0 0 0 0 0 0.1 0"/><feBlend in2="shape" result="effect1_innerShadow_3051_47017"/><feColorMatrix in="SourceAlpha" result="hardAlpha" values="0 0 0 0 0 0 0 0 0 0 0 0 0 0 0 0 0 0 127 0"/><feOffset dy="3"/><feGaussianBlur stdDeviation="1.5"/><feComposite in2="hardAlpha" k2="-1" k3="1" operator="arithmetic"/><feColorMatrix values="0 0 0 0 1 0 0 0 0 1 0 0 0 0 1 0 0 0 0.1 0"/><feBlend in2="effect1_innerShadow_3051_47017" result="effect2_innerShadow_3051_47017"/><feColorMatrix in="SourceAlpha" result="hardAlpha" values="0 0 0 0 0 0 0 0 0 0 0 0 0 0 0 0 0 0 127 0"/><feMorphology in="SourceAlpha" radius="1" result="effect3_innerShadow_3051_47017"/><feOffset/><feComposite in2="hardAlpha" k2="-1" k3="1" operator="arithmetic"/><feColorMatrix values="0 0 0 0 0.0627451 0 0 0 0 0.0941176 0 0 0 0 0.156863 0 0 0 0.24 0"/><feBlend in2="effect2_innerShadow_3051_47017" result="effect3_innerShadow_3051_47017"/></filter><filter id="d" width="36" height="42" x="6" y="5.25" color-interpolation-filters="sRGB" filterUnits="userSpaceOnUse"><feFlood flood-opacity="0" result="BackgroundImageFix"/><feColorMatrix in="SourceAlpha" result="hardAlpha" values="0 0 0 0 0 0 0 0 0 0 0 0 0 0 0 0 0 0 127 0"/><feMorphology in="SourceAlpha" radius="1.5" result="effect1_dropShadow_3051_47017"/><feOffset dy="2.25"/><feGaussianBlur stdDeviation="2.25"/><feComposite in2="hardAlpha" operator="out"/><feColorMatrix values="0 0 0 0 0.141176 0 0 0 0 0.141176 0 0 0 0 0.141176 0 0 0 0.1 0"/><feBlend in2="BackgroundImageFix" result="effect1_dropShadow_3051_47017"/><feBlend in="SourceGraphic" in2="effect1_dropShadow_3051_47017" result="shape"/></filter><linearGradient id="c" x1="24" x2="26" y1="0" y2="48" gradientUnits="userSpaceOnUse"><stop offset="0" stop-color="#fff" stop-opacity="0"/><stop offset="1" stop-color="#fff" stop-opacity=".12"/></linearGradient><linearGradient id="e" x1="24" x2="24" y1="0" y2="48" gradientUnits="userSpaceOnUse"><stop offset="0" stop-color="#fff" stop-opacity=".12"/><stop offset="1" stop-color="#fff" stop-opacity="0"/></linearGradient><clipPath id="b"><rect width="48" height="48" rx="12"/></clipPath><g filter="url(#a)"><g clip-path="url(#b)"><rect width="48" height="48" fill="#1f242f" rx="12"/><path fill="url(#c)" d="M0 0h48v48H0z"/><g fill="#fff" filter="url(#d)"><path d="M9 33.75h5.25V39H9z"/><path d="M14.25 33.75h5.25V39h-5.25z" opacity=".6"/><path d="M19.5 33.75h5.25V39H19.5z" opacity=".32"/><path d="M24.75 33.75H30V39h-5.25z" opacity=".07"/><path d="M9 28.5h5.25v5.25H9z" opacity=".6"/><path d="M14.25 28.5h5.25v5.25h-5.25z" opacity=".32"/><path d="M14.25 23.25h5.25v5.25h-5.25zm5.25 5.25h5.25v5.25H19.5z" opacity=".07"/><path d="M9 23.25h5.25v5.25H9z" opacity=".32"/><path d="M9 18h5.25v5.25H9z" opacity=".07"/><path d="M33.75 9H39v5.25h-5.25z"/><path d="M33.75 14.25H39v5.25h-5.25z" opacity=".6"/><path d="M28.5 14.25h5.25v5.25H28.5z" opacity=".32"/><path d="M23.25 14.25h5.25v5.25h-5.25z" opacity=".07"/><path d="M33.75 19.5H39v5.25h-5.25z" opacity=".32"/><path d="M28.5 19.5h5.25v5.25H28.5zm5.25 5.25H39V30h-5.25z" opacity=".07"/><path d="M28.5 9h5.25v5.25H28.5z" opacity=".6"/><path d="M23.25 9h5.25v5.25h-5.25z" opacity=".32"/><path d="M18 9h5.25v5.25H18z" opacity=".07"/></g></g><rect width="46" height="46" x="1" y="1" stroke="url(#e)" stroke-width="2" rx="11"/></g></svg>