<svg xmlns="http://www.w3.org/2000/svg" width="48" height="48" fill="none"><filter id="a" width="48" height="54" x="0" y="-3" color-interpolation-filters="sRGB" filterUnits="userSpaceOnUse"><feFlood flood-opacity="0" result="BackgroundImageFix"/><feBlend in="SourceGraphic" in2="BackgroundImageFix" result="shape"/><feColorMatrix in="SourceAlpha" result="hardAlpha" values="0 0 0 0 0 0 0 0 0 0 0 0 0 0 0 0 0 0 127 0"/><feOffset dy="-3"/><feGaussianBlur stdDeviation="1.5"/><feComposite in2="hardAlpha" k2="-1" k3="1" operator="arithmetic"/><feColorMatrix values="0 0 0 0 0 0 0 0 0 0 0 0 0 0 0 0 0 0 0.1 0"/><feBlend in2="shape" result="effect1_innerShadow_3051_46859"/><feColorMatrix in="SourceAlpha" result="hardAlpha" values="0 0 0 0 0 0 0 0 0 0 0 0 0 0 0 0 0 0 127 0"/><feOffset dy="3"/><feGaussianBlur stdDeviation="1.5"/><feComposite in2="hardAlpha" k2="-1" k3="1" operator="arithmetic"/><feColorMatrix values="0 0 0 0 1 0 0 0 0 1 0 0 0 0 1 0 0 0 0.1 0"/><feBlend in2="effect1_innerShadow_3051_46859" result="effect2_innerShadow_3051_46859"/><feColorMatrix in="SourceAlpha" result="hardAlpha" values="0 0 0 0 0 0 0 0 0 0 0 0 0 0 0 0 0 0 127 0"/><feMorphology in="SourceAlpha" radius="1" result="effect3_innerShadow_3051_46859"/><feOffset/><feComposite in2="hardAlpha" k2="-1" k3="1" operator="arithmetic"/><feColorMatrix values="0 0 0 0 0.0627451 0 0 0 0 0.0941176 0 0 0 0 0.156863 0 0 0 0.24 0"/><feBlend in2="effect2_innerShadow_3051_46859" result="effect3_innerShadow_3051_46859"/></filter><filter id="d" width="36" height="42" x="6" y="5.25" color-interpolation-filters="sRGB" filterUnits="userSpaceOnUse"><feFlood flood-opacity="0" result="BackgroundImageFix"/><feColorMatrix in="SourceAlpha" result="hardAlpha" values="0 0 0 0 0 0 0 0 0 0 0 0 0 0 0 0 0 0 127 0"/><feMorphology in="SourceAlpha" radius="1.5" result="effect1_dropShadow_3051_46859"/><feOffset dy="2.25"/><feGaussianBlur stdDeviation="2.25"/><feComposite in2="hardAlpha" operator="out"/><feColorMatrix values="0 0 0 0 0.141176 0 0 0 0 0.141176 0 0 0 0 0.141176 0 0 0 0.1 0"/><feBlend in2="BackgroundImageFix" result="effect1_dropShadow_3051_46859"/><feBlend in="SourceGraphic" in2="effect1_dropShadow_3051_46859" result="shape"/></filter><linearGradient id="c" x1="24" x2="26" y1="0" y2="48" gradientUnits="userSpaceOnUse"><stop offset="0" stop-color="#fff" stop-opacity="0"/><stop offset="1" stop-color="#fff" stop-opacity=".12"/></linearGradient><linearGradient id="e" x1="24" x2="24" y1="9" y2="39" gradientUnits="userSpaceOnUse"><stop offset="0" stop-color="#fff" stop-opacity=".8"/><stop offset="1" stop-color="#fff" stop-opacity=".5"/></linearGradient><linearGradient id="f" x1="24" x2="24" y1="0" y2="48" gradientUnits="userSpaceOnUse"><stop offset="0" stop-color="#fff" stop-opacity=".12"/><stop offset="1" stop-color="#fff" stop-opacity="0"/></linearGradient><clipPath id="b"><rect width="48" height="48" rx="12"/></clipPath><g filter="url(#a)"><g clip-path="url(#b)"><rect width="48" height="48" fill="#155eef" rx="12"/><path fill="url(#c)" d="M0 0h48v48H0z"/><g filter="url(#d)"><path fill="url(#e)" fill-rule="evenodd" d="M24 39c8.284 0 15-6.716 15-15S32.284 9 24 9 9 15.716 9 24s6.716 15 15 15zm4.68-23.012c.227-.81-.558-1.288-1.275-.777l-10.01 7.131c-.778.554-.655 1.658.184 1.658h2.636v-.02h5.137l-4.186 1.477-1.845 6.555c-.228.81.557 1.288 1.274.777l10.01-7.131c.778-.554.656-1.658-.184-1.658h-3.997z" clip-rule="evenodd"/></g></g><rect width="46" height="46" x="1" y="1" stroke="url(#f)" stroke-width="2" rx="11"/></g></svg>